<?xml version="1.0" encoding="UTF-8" standalone="no"?>
<!-- Created with Inkscape (http://www.inkscape.org/) -->

<!-- Created by HMilch (http://de.wikipedia.org/wiki/Benutzer:Hmilch) for Wikipedia -->

<svg
   xmlns:dc="http://purl.org/dc/elements/1.1/"
   xmlns:cc="http://creativecommons.org/ns#"
   xmlns:rdf="http://www.w3.org/1999/02/22-rdf-syntax-ns#"
   xmlns:svg="http://www.w3.org/2000/svg"
   xmlns="http://www.w3.org/2000/svg"
   xmlns:sodipodi="http://sodipodi.sourceforge.net/DTD/sodipodi-0.dtd"
   xmlns:inkscape="http://www.inkscape.org/namespaces/inkscape"
   width="755"
   height="445"
   id="svg2"
   sodipodi:version="0.32"
   inkscape:version="0.47 r22583"
   version="1.0"
   sodipodi:docname="Roentgen-Roehre.svg"
   inkscape:output_extension="org.inkscape.output.svg.inkscape">
  <defs
     id="defs4">
    <inkscape:perspective
       sodipodi:type="inkscape:persp3d"
       inkscape:vp_x="0 : 526.18109 : 1"
       inkscape:vp_y="0 : 1000 : 0"
       inkscape:vp_z="744.09448 : 526.18109 : 1"
       inkscape:persp3d-origin="372.04724 : 350.78739 : 1"
       id="perspective10" />
    <inkscape:perspective
       id="perspective2410"
       inkscape:persp3d-origin="372.04724 : 350.78739 : 1"
       inkscape:vp_z="744.09448 : 526.18109 : 1"
       inkscape:vp_y="0 : 1000 : 0"
       inkscape:vp_x="0 : 526.18109 : 1"
       sodipodi:type="inkscape:persp3d" />
    <inkscape:perspective
       id="perspective2520"
       inkscape:persp3d-origin="372.04724 : 350.78739 : 1"
       inkscape:vp_z="744.09448 : 526.18109 : 1"
       inkscape:vp_y="0 : 1000 : 0"
       inkscape:vp_x="0 : 526.18109 : 1"
       sodipodi:type="inkscape:persp3d" />
  </defs>
  <sodipodi:namedview
     id="base"
     pagecolor="#ffffff"
     bordercolor="#666666"
     borderopacity="1.0"
     inkscape:pageopacity="0.0"
     inkscape:pageshadow="2"
     inkscape:zoom="0.9899495"
     inkscape:cx="398.42181"
     inkscape:cy="186.66862"
     inkscape:document-units="px"
     inkscape:current-layer="layer1"
     showgrid="false"
     showguides="true"
     inkscape:guide-bbox="true"
     inkscape:window-width="1280"
     inkscape:window-height="978"
     inkscape:window-x="98"
     inkscape:window-y="-5"
     inkscape:window-maximized="0" />
  <metadata
     id="metadata7">
    <rdf:RDF>
      <cc:Work
         rdf:about="">
        <dc:format>image/svg+xml</dc:format>
        <dc:type
           rdf:resource="http://purl.org/dc/dcmitype/StillImage" />
      </cc:Work>
    </rdf:RDF>
  </metadata>
  <g
     inkscape:label="Ebene 1"
     inkscape:groupmode="layer"
     id="layer1"
     transform="translate(-31.501618,-356.37607)">
    <text
       xml:space="preserve"
       style="font-size:40px;font-style:normal;font-variant:normal;font-weight:normal;font-stretch:normal;text-align:start;line-height:125%;writing-mode:lr-tb;text-anchor:start;fill:#008000;fill-opacity:1;stroke:none;font-family:Arial"
       x="219.00705"
       y="790.3725"
       id="text2730"
       sodipodi:linespacing="125%"><tspan
         sodipodi:role="line"
         id="tspan2732"
         x="219.00705"
         y="790.3725"
         style="font-weight:bold">X</tspan></text>
    <text
       xml:space="preserve"
       style="font-size:40px;font-style:normal;font-variant:normal;font-weight:normal;font-stretch:normal;text-align:start;line-height:125%;writing-mode:lr-tb;text-anchor:start;fill:#ff0000;fill-opacity:1;stroke:none;font-family:Arial"
       x="234.81909"
       y="555.15869"
       id="text2734"
       sodipodi:linespacing="125%"><tspan
         sodipodi:role="line"
         id="tspan2736"
         x="234.81909"
         y="555.15869"
         style="font-weight:bold;fill:#ff0000;fill-opacity:1">C</tspan></text>
    <text
       xml:space="preserve"
       style="font-size:40px;font-style:normal;font-variant:normal;font-weight:normal;font-stretch:normal;text-align:start;line-height:125%;writing-mode:lr-tb;text-anchor:start;fill:#ff0000;fill-opacity:1;stroke:none;font-family:Arial"
       x="361.00656"
       y="517.65143"
       id="text2738"
       sodipodi:linespacing="125%"><tspan
         sodipodi:role="line"
         id="tspan2740"
         x="361.00656"
         y="517.65143"
         style="font-weight:bold">A</tspan></text>
    <text
       xml:space="preserve"
       style="font-size:40px;font-style:normal;font-variant:normal;font-weight:normal;font-stretch:normal;text-align:start;line-height:125%;writing-mode:lr-tb;text-anchor:start;fill:#000080;fill-opacity:1;stroke:none;font-family:Arial"
       x="633.95264"
       y="463.40482"
       id="text3591"
       sodipodi:linespacing="125%"><tspan
         sodipodi:role="line"
         id="tspan3593"
         x="633.95264"
         y="463.40482"
         style="font-weight:bold">W<tspan
   style="font-size:20px;font-weight:bold"
   id="tspan3595"
   dy="4.7548962"
   dx="-2.1428571">out</tspan></tspan></text>
    <text
       xml:space="preserve"
       style="font-size:40px;font-style:normal;font-variant:normal;font-weight:normal;font-stretch:normal;text-align:start;line-height:125%;writing-mode:lr-tb;text-anchor:start;fill:#000080;fill-opacity:1;stroke:none;font-family:Arial"
       x="726.99567"
       y="582.73828"
       id="text3597"
       sodipodi:linespacing="125%"><tspan
         sodipodi:role="line"
         id="tspan3599"
         x="726.99567"
         y="582.73828"
         style="font-weight:bold">W<tspan
   style="font-size:20px;font-weight:bold"
   id="tspan3601"
   dy="4.7548962"
   dx="-1.4285715">in</tspan></tspan></text>
    <text
       xml:space="preserve"
       style="font-size:40px;font-style:normal;font-variant:normal;font-weight:normal;font-stretch:normal;text-align:start;line-height:125%;writing-mode:lr-tb;text-anchor:start;fill:#992e2e;fill-opacity:1;stroke:none;font-family:Arial"
       x="335.45255"
       y="389.53772"
       id="text3825"
       sodipodi:linespacing="125%"><tspan
         sodipodi:role="line"
         id="tspan3827"
         x="335.45255"
         y="389.53772"
         style="font-weight:bold">U<tspan
   style="font-size:20px;font-weight:bold;fill:#992e2e;fill-opacity:1"
   id="tspan3829"
   dy="4.7548962"
   dx="-2.1428571">a</tspan></tspan></text>
    <text
       xml:space="preserve"
       style="font-size:40px;font-style:normal;font-variant:normal;font-weight:bold;font-stretch:normal;text-align:start;line-height:125%;writing-mode:lr-tb;text-anchor:start;fill:#992e2e;fill-opacity:1;stroke:none;font-family:Arial;-inkscape-font-specification:Arial Bold"
       x="44.787613"
       y="389.5466"
       id="text3831"
       sodipodi:linespacing="125%"><tspan
         sodipodi:role="line"
         id="tspan3833"
         x="44.787613"
         y="389.5466">U<tspan
   style="font-size:20px;font-style:normal;font-variant:normal;font-weight:bold;font-stretch:normal;text-align:start;line-height:125%;writing-mode:lr-tb;text-anchor:start;fill:#992e2e;fill-opacity:1;font-family:Arial;-inkscape-font-specification:Arial Bold"
   id="tspan3837"
   dy="4.7548962"
   dx="-1.4285715">h</tspan></tspan></text>
    <g
       id="g2990"
       transform="matrix(1,0,0,-1,0,1158.1087)">
      <path
         id="path3839"
         style="fill:#000000;fill-opacity:1;stroke:#992e2e;stroke-width:3.01616502;stroke-linecap:square;stroke-linejoin:bevel;stroke-miterlimit:10;stroke-opacity:1;stroke-dasharray:none"
         d="m 336.00111,741.2801 -8.8342,0"
         sodipodi:nodetypes="cc" />
      <g
         style="fill:#ffffff;fill-opacity:1"
         transform="matrix(1.2055233,0,0,1.2055233,-62.639184,-146.69042)"
         id="g3845">
        <path
           sodipodi:nodetypes="cc"
           d="m 364.73044,737.19459 -7.3281,0"
           style="fill:none;stroke:#992e2e;stroke-width:2.50195503;stroke-linecap:square;stroke-linejoin:bevel;stroke-miterlimit:10;stroke-opacity:1;stroke-dasharray:none"
           id="path3841" />
        <path
           sodipodi:nodetypes="cc"
           d="m 361.12954,740.94567 0,-7.3281"
           style="fill:none;stroke:#992e2e;stroke-width:2.50195503;stroke-linecap:square;stroke-linejoin:bevel;stroke-miterlimit:10;stroke-opacity:1;stroke-dasharray:none"
           id="path3843" />
      </g>
      <g
         id="g2913">
        <path
           style="fill:none;stroke:#000000;stroke-width:2.76762915;stroke-linecap:round;stroke-linejoin:round;stroke-miterlimit:10;stroke-opacity:1;stroke-dasharray:none"
           d="m 324.5,77.4375 c -60.27835,-10e-7 -111.72764,37.72265 -132.0625,90.90625 l -62.375,0 c -27.34004,0 -49.53125,22.15946 -49.53125,49.5 3e-6,27.34052 22.19121,49.5 49.53125,49.5 l 61.5625,0 c 19.74432,54.37939 71.77056,93.25 132.875,93.25 56.81483,-10e-6 105.86835,-33.61014 128.375,-82.03125 l 67.96875,0 c 27.59533,-10e-6 49.9375,-27.80166 49.9375,-62.125 0,-34.19989 -22.34216,-61.96875 -49.9375,-61.96875 l -70.34375,0 C 427.03667,108.72273 379.38541,77.4375 324.5,77.4375 z"
           transform="translate(31.501618,356.37607)"
           id="path2532" />
        <g
           id="g3778"
           transform="translate(3.320256,4.3330449)">
          <g
             id="g3772"
             transform="matrix(0.9525616,0,0,1,31.87145,0)">
            <path
               id="path2542"
               style="fill:#00ccff;fill-opacity:1;fill-rule:evenodd;stroke:none"
               d="m 406.38673,527.61521 c -22.90694,0 -41.62658,18.59649 -41.62658,41.50342 0,22.90694 18.71964,41.62659 41.62658,41.62659 l 221.68002,0 c 22.90694,0 41.50343,-18.71965 41.50343,-41.62659 0,-22.90693 -18.59649,-41.50342 -41.50343,-41.50342" />
            <path
               id="path2544"
               style="fill:none;stroke:#ff0000;stroke-width:4.55675602;stroke-linecap:round;stroke-linejoin:round;stroke-miterlimit:10;stroke-opacity:1;stroke-dasharray:none"
               d="m 406.38673,527.61521 c -22.90694,0 -41.62658,18.59649 -41.62658,41.50342 0,22.90694 18.71964,41.62659 41.62658,41.62659 l 221.68002,0 c 22.90694,0 41.50343,-18.71965 41.50343,-41.62659 0,-22.90693 -18.59649,-41.50342 -41.50343,-41.50342 l -221.68002,0 z" />
            <path
               id="path2582"
               style="fill:#ff0000;fill-opacity:1;fill-rule:evenodd;stroke:none"
               d="m 380.89353,512.22076 -53.08005,110.84001 67.11978,0 52.9569,-110.84001" />
            <path
               id="path2584"
               style="fill:none;stroke:#ff0000;stroke-width:4.55675602;stroke-linecap:round;stroke-linejoin:miter;stroke-miterlimit:10;stroke-opacity:1;stroke-dasharray:none"
               d="m 380.89353,512.22076 -53.08005,110.84001 67.11978,0 52.9569,-110.84001 -66.99663,0 z" />
          </g>
          <g
             id="g3712">
            <path
               id="path2546"
               style="fill:#00ccff;fill-opacity:1;fill-rule:evenodd;stroke:none"
               d="m 476.98602,562.8377 0,9.11351 230.91669,0 0,-9.11351 -230.91669,0 z" />
            <path
               sodipodi:nodetypes="cccc"
               id="path2548"
               style="fill:none;stroke:#000000;stroke-width:2.33995581;stroke-linecap:round;stroke-linejoin:miter;stroke-miterlimit:10;stroke-opacity:1;stroke-dasharray:none"
               d="m 475.72331,571.95121 230.91669,0 m 0,-9.11351 -230.91669,0" />
          </g>
          <g
             id="g3716">
            <path
               id="path2550"
               style="fill:#00ccff;fill-opacity:1;fill-rule:evenodd;stroke:none"
               d="m 641.98333,584.78431 0,64.65667 9.23667,0 0,-64.65667 -9.23667,0 z" />
            <path
               sodipodi:nodetypes="cccc"
               id="path2552"
               style="fill:none;stroke:#000000;stroke-width:2.33995581;stroke-linecap:round;stroke-linejoin:bevel;stroke-miterlimit:10;stroke-opacity:1;stroke-dasharray:none"
               d="m 651.22,648.43082 0,-64.65667 m -9.23667,0 0,64.65667" />
          </g>
        </g>
        <g
           id="g3668"
           transform="translate(3.320256,4.3330449)">
          <g
             id="g3751">
            <path
               id="path2586"
               style="fill:none;stroke:#008000;stroke-width:3.07888913;stroke-linecap:butt;stroke-linejoin:round;stroke-miterlimit:10;stroke-opacity:1;stroke-dasharray:3.0788892, 3.0788892;stroke-dashoffset:0"
               d="M 392.47015,528.35414 366.97695,375.39493" />
            <path
               id="path2588"
               style="fill:#008000;fill-opacity:1;fill-rule:evenodd;stroke:none"
               d="m 373.87366,374.65599 -8.99036,-12.56187 -4.67991,14.90183" />
          </g>
          <g
             id="g3755">
            <path
               id="path2590"
               style="fill:none;stroke:#008000;stroke-width:3.07888913;stroke-linecap:butt;stroke-linejoin:round;stroke-miterlimit:10;stroke-opacity:1;stroke-dasharray:3.0788892, 3.0788892;stroke-dashoffset:0"
               d="M 420.18015,537.59081 411.68242,375.64124" />
            <path
               id="path2592"
               style="fill:#008000;fill-opacity:1;fill-rule:evenodd;stroke:none"
               d="m 418.70229,375.64124 -7.75881,-13.54712 -6.15777,14.28605" />
          </g>
          <g
             id="g3759"
             transform="translate(15.714286,7.8571429)">
            <path
               id="path2594"
               style="fill:none;stroke:#008000;stroke-width:3.07888913;stroke-linecap:butt;stroke-linejoin:round;stroke-miterlimit:10;stroke-opacity:1;stroke-dasharray:3.0788892, 3.0788892;stroke-dashoffset:0"
               d="M 364.76015,565.30081 243.32876,400.64182" />
            <path
               id="path2596"
               style="fill:#008000;fill-opacity:1;fill-rule:evenodd;stroke:none"
               d="m 249.24022,396.94715 -13.67026,-7.01987 2.58626,15.14814" />
          </g>
          <g
             id="g3747"
             transform="translate(6.4285714,6.4285714)">
            <path
               id="path2598"
               style="fill:none;stroke:#008000;stroke-width:3.07888913;stroke-linecap:butt;stroke-linejoin:round;stroke-miterlimit:10;stroke-opacity:1;stroke-dasharray:3.0788892, 3.0788892;stroke-dashoffset:0"
               d="M 401.70682,574.53748 306.26125,383.40004" />
            <path
               id="path2600"
               style="fill:#008000;fill-opacity:1;fill-rule:evenodd;stroke:none"
               d="m 312.54219,380.69061 -12.43872,-9.23666 0,15.39444" />
          </g>
          <g
             id="g3763"
             transform="translate(10.714286,9.2857143)">
            <path
               id="path2602"
               style="fill:none;stroke:#008000;stroke-width:3.07888913;stroke-linecap:butt;stroke-linejoin:round;stroke-miterlimit:10;stroke-opacity:1;stroke-dasharray:3.0788892, 3.0788892;stroke-dashoffset:0"
               d="M 373.99681,602.24748 190.24871,444.73151" />
            <path
               id="path2604"
               style="fill:#008000;fill-opacity:1;fill-rule:evenodd;stroke:none"
               d="m 195.05177,439.80529 -14.90182,-3.81783 5.91147,14.28605" />
          </g>
        </g>
        <g
           id="g2480"
           transform="matrix(1.1804014,0,0,1.1804014,-44.846854,-118.32382)">
          <g
             transform="translate(3.320256,4.3330449)"
             id="g3680">
            <path
               id="path2608"
               style="fill:#3265ff;fill-opacity:1;stroke:#000000;stroke-width:0.73893344;stroke-linecap:round;stroke-linejoin:round;stroke-miterlimit:10;stroke-opacity:1;stroke-dasharray:none"
               d="m 268.08303,558.15779 c 0,-3.94098 -3.20205,-7.01987 -7.01987,-7.01987 -3.94098,0 -7.01987,3.07889 -7.01987,7.01987 0,3.94098 3.07889,7.14302 7.01987,7.14302 3.81782,0 7.01987,-3.20204 7.01987,-7.14302 z" />
            <path
               id="path2610"
               style="fill:none;stroke:#000000;stroke-width:2.33995581;stroke-linecap:butt;stroke-linejoin:round;stroke-miterlimit:10;stroke-opacity:1;stroke-dasharray:none"
               d="m 256.26009,558.4041 9.23667,0" />
          </g>
          <g
             transform="translate(3.320256,4.3330449)"
             id="g3699">
            <path
               id="path2612"
               style="fill:none;stroke:#000000;stroke-width:0.73893344;stroke-linecap:round;stroke-linejoin:round;stroke-miterlimit:10;stroke-opacity:1;stroke-dasharray:none"
               d="m 272.88609,558.28094 14.90183,0" />
            <path
               id="path2614"
               style="fill:#000000;fill-opacity:1;fill-rule:evenodd;stroke:none"
               d="m 287.54161,562.34508 8.12826,-3.94098 -8.12826,-4.06413" />
          </g>
        </g>
        <g
           id="g3806"
           transform="translate(3.320256,4.3330449)">
          <path
             d="m 87.660611,593.01076 0,156.39201"
             style="fill:none;stroke:#ff0000;stroke-width:1.47786689;stroke-linecap:square;stroke-linejoin:miter;stroke-miterlimit:10;stroke-opacity:1;stroke-dasharray:none"
             id="path2554"
             sodipodi:nodetypes="cc" />
          <path
             d="m 32.240618,546.82748 0,203.20668"
             style="fill:none;stroke:#ff0000;stroke-width:1.47799993;stroke-linecap:square;stroke-linejoin:miter;stroke-miterlimit:10;stroke-opacity:1;stroke-dasharray:none"
             id="path2556" />
          <path
             sodipodi:nodetypes="cc"
             d="m 41.293028,750.03416 -8.673603,0"
             style="fill:none;stroke:#ff0000;stroke-width:1.47786689;stroke-linecap:square;stroke-linejoin:bevel;stroke-miterlimit:10;stroke-opacity:1;stroke-dasharray:none"
             id="path2558" />
          <path
             d="m 614.15017,611.48415 0,138.04494"
             style="fill:none;stroke:#ff0000;stroke-width:1.47786689;stroke-linecap:square;stroke-linejoin:bevel;stroke-miterlimit:10;stroke-opacity:1;stroke-dasharray:none"
             id="path2560"
             sodipodi:nodetypes="cc" />
          <path
             d="m 338.65117,749.92967 c 0,-2.58627 -2.09365,-4.55676 -4.67992,-4.55676 -2.58626,0 -4.55675,1.97049 -4.55675,4.55676 0,2.58626 1.97049,4.67991 4.55675,4.67991 2.58627,0 4.67992,-2.09365 4.67992,-4.67991 z"
             style="fill:none;stroke:#ff0000;stroke-width:1.47786689;stroke-linecap:round;stroke-linejoin:round;stroke-miterlimit:10;stroke-opacity:1;stroke-dasharray:none"
             id="path2564" />
          <path
             d="m 366.36117,749.92967 c 0,-2.58627 -2.09365,-4.55676 -4.67991,-4.55676 -2.58627,0 -4.55676,1.97049 -4.55676,4.55676 0,2.58626 1.97049,4.67991 4.55676,4.67991 2.58626,0 4.67991,-2.09365 4.67991,-4.67991 z"
             style="fill:none;stroke:#ff0000;stroke-width:1.47786689;stroke-linecap:round;stroke-linejoin:round;stroke-miterlimit:10;stroke-opacity:1;stroke-dasharray:none"
             id="path2568" />
          <path
             d="m 50.837096,749.91101 c 0,-2.58627 -2.093644,-4.55676 -4.679911,-4.55676 -2.586267,0 -4.556756,1.97049 -4.556756,4.55676 0,2.58626 1.970489,4.67991 4.556756,4.67991 2.586267,0 4.679911,-2.09365 4.679911,-4.67991 z"
             style="fill:none;stroke:#ff0000;stroke-width:1.47786689;stroke-linecap:round;stroke-linejoin:round;stroke-miterlimit:10;stroke-opacity:1;stroke-dasharray:none"
             id="path2572" />
          <path
             d="m 78.547099,749.91101 c 0,-2.58627 -2.093644,-4.55676 -4.679911,-4.55676 -2.586267,0 -4.556756,1.97049 -4.556756,4.55676 0,2.58626 1.970489,4.67991 4.556756,4.67991 2.586267,0 4.679911,-2.09365 4.679911,-4.67991 z"
             style="fill:none;stroke:#ff0000;stroke-width:1.47786689;stroke-linecap:round;stroke-linejoin:round;stroke-miterlimit:10;stroke-opacity:1;stroke-dasharray:none"
             id="path2576" />
          <path
             d="m 32.240618,546.82748 193.969512,0"
             style="fill:none;stroke:#ff0000;stroke-width:1.47786689;stroke-linecap:butt;stroke-linejoin:round;stroke-miterlimit:10;stroke-opacity:1;stroke-dasharray:none"
             id="path2578" />
          <path
             d="m 87.660611,593.01081 138.549519,0"
             style="fill:none;stroke:#ff0000;stroke-width:1.47786689;stroke-linecap:square;stroke-linejoin:bevel;stroke-miterlimit:10;stroke-opacity:1;stroke-dasharray:none"
             id="path2580" />
          <g
             id="g3800">
            <path
               id="path2638"
               style="fill:none;stroke:#ff0000;stroke-width:1.47786689;stroke-linecap:round;stroke-linejoin:round;stroke-miterlimit:10;stroke-opacity:1;stroke-dasharray:none"
               d="m 244.80662,565.30081 c 0,-5.17253 -10.34506,-9.23667 -23.15324,-9.23667 -12.80818,0 -23.03009,4.06414 -23.03009,9.23667 0,5.04938 10.22191,9.23667 23.03009,9.23667 12.80818,0 23.15324,-4.18729 23.15324,-9.23667 z" />
            <path
               id="path2636"
               style="fill:none;stroke:#ff0000;stroke-width:1.47786689;stroke-linecap:round;stroke-linejoin:round;stroke-miterlimit:10;stroke-opacity:1;stroke-dasharray:none"
               d="m 244.80662,555.93788 c 0,-5.17254 -10.34506,-9.23667 -23.15324,-9.23667 -12.80818,0 -23.03009,4.06413 -23.03009,9.23667 0,5.04938 10.22191,9.23667 23.03009,9.23667 12.80818,0 23.15324,-4.18729 23.15324,-9.23667 z" />
            <path
               id="path2640"
               style="fill:none;stroke:#ff0000;stroke-width:1.47786689;stroke-linecap:round;stroke-linejoin:round;stroke-miterlimit:10;stroke-opacity:1;stroke-dasharray:none"
               d="m 244.80662,574.53748 c 0,-5.17254 -10.34506,-9.23667 -23.15324,-9.23667 -12.80818,0 -23.03009,4.06413 -23.03009,9.23667 0,5.04938 10.22191,9.23667 23.03009,9.23667 12.80818,0 23.15324,-4.18729 23.15324,-9.23667 z" />
            <path
               id="path2642"
               style="fill:none;stroke:#ff0000;stroke-width:1.47786689;stroke-linecap:round;stroke-linejoin:round;stroke-miterlimit:10;stroke-opacity:1;stroke-dasharray:none"
               d="m 244.80662,583.90041 c 0,-5.17253 -10.34506,-9.23667 -23.15324,-9.23667 -12.80818,0 -23.03009,4.06414 -23.03009,9.23667 0,5.04938 10.22191,9.23667 23.03009,9.23667 12.80818,0 23.15324,-4.18729 23.15324,-9.23667 z" />
          </g>
          <path
             id="path2748"
             style="fill:none;stroke:#ff0000;stroke-width:1.47786689;stroke-linecap:square;stroke-linejoin:bevel;stroke-miterlimit:10;stroke-opacity:1;stroke-dasharray:none"
             d="m 329.33493,750.0101 -250.10216,0"
             sodipodi:nodetypes="cc" />
          <path
             id="path2811"
             style="fill:none;stroke:#ff0000;stroke-width:1.47786689;stroke-linecap:square;stroke-linejoin:bevel;stroke-miterlimit:10;stroke-opacity:1;stroke-dasharray:none"
             d="m 614.10219,749.82149 -247.32424,0"
             sodipodi:nodetypes="cc" />
        </g>
        <g
           id="g3720"
           transform="matrix(0,2.0907245,-2.0907245,0,1875.2911,23.712645)">
          <g
             id="g3735">
            <path
               id="path3724"
               style="fill:#000000;fill-opacity:1;fill-rule:evenodd;stroke:none"
               d="m 306.01494,590.05508 8.12827,-4.06413 -8.12827,-3.94098" />
            <path
               id="path3732"
               style="fill:none;stroke:#000000;stroke-width:0.88298202;stroke-linecap:round;stroke-linejoin:round;stroke-miterlimit:10;stroke-opacity:1;stroke-dasharray:none"
               d="m 295.25738,586.02681 10.87391,0" />
          </g>
        </g>
        <g
           id="g3726"
           transform="matrix(-2.0907245,0,0,-2.0907245,1369.1675,1797.3489)">
          <path
             d="m 295.48721,586.05134 10.87391,0"
             style="fill:none;stroke:#000000;stroke-width:0.88298202;stroke-linecap:round;stroke-linejoin:round;stroke-miterlimit:10;stroke-opacity:1;stroke-dasharray:none"
             id="path3728" />
          <path
             d="m 306.01494,590.05508 8.12827,-4.06413 -8.12827,-3.94098"
             style="fill:#000000;fill-opacity:1;fill-rule:evenodd;stroke:none"
             id="path3730" />
        </g>
        <g
           transform="matrix(1.1804014,0,0,1.1804014,-21.613345,-67.311112)"
           id="g2505">
          <g
             id="g2507"
             transform="translate(3.320256,4.3330449)">
            <path
               d="m 268.08303,558.15779 c 0,-3.94098 -3.20205,-7.01987 -7.01987,-7.01987 -3.94098,0 -7.01987,3.07889 -7.01987,7.01987 0,3.94098 3.07889,7.14302 7.01987,7.14302 3.81782,0 7.01987,-3.20204 7.01987,-7.14302 z"
               style="fill:#3265ff;fill-opacity:1;stroke:#000000;stroke-width:0.73893344;stroke-linecap:round;stroke-linejoin:round;stroke-miterlimit:10;stroke-opacity:1;stroke-dasharray:none"
               id="path2509" />
            <path
               d="m 256.26009,558.4041 9.23667,0"
               style="fill:none;stroke:#000000;stroke-width:2.33995581;stroke-linecap:butt;stroke-linejoin:round;stroke-miterlimit:10;stroke-opacity:1;stroke-dasharray:none"
               id="path2511" />
          </g>
          <g
             id="g2513"
             transform="translate(3.320256,4.3330449)">
            <path
               d="m 272.88609,558.28094 14.90183,0"
               style="fill:none;stroke:#000000;stroke-width:0.73893344;stroke-linecap:round;stroke-linejoin:round;stroke-miterlimit:10;stroke-opacity:1;stroke-dasharray:none"
               id="path2515" />
            <path
               d="m 287.54161,562.34508 8.12826,-3.94098 -8.12826,-4.06413"
               style="fill:#000000;fill-opacity:1;fill-rule:evenodd;stroke:none"
               id="path2517" />
          </g>
        </g>
        <g
           id="g2519"
           transform="matrix(1.1804014,0,0,1.1804014,16.267376,-95.090312)">
          <g
             transform="translate(3.320256,4.3330449)"
             id="g2521">
            <path
               id="path2523"
               style="fill:#3265ff;fill-opacity:1;stroke:#000000;stroke-width:0.73893344;stroke-linecap:round;stroke-linejoin:round;stroke-miterlimit:10;stroke-opacity:1;stroke-dasharray:none"
               d="m 268.08303,558.15779 c 0,-3.94098 -3.20205,-7.01987 -7.01987,-7.01987 -3.94098,0 -7.01987,3.07889 -7.01987,7.01987 0,3.94098 3.07889,7.14302 7.01987,7.14302 3.81782,0 7.01987,-3.20204 7.01987,-7.14302 z" />
            <path
               id="path2525"
               style="fill:none;stroke:#000000;stroke-width:2.33995581;stroke-linecap:butt;stroke-linejoin:round;stroke-miterlimit:10;stroke-opacity:1;stroke-dasharray:none"
               d="m 256.26009,558.4041 9.23667,0" />
          </g>
          <g
             transform="translate(3.320256,4.3330449)"
             id="g2527">
            <path
               id="path2529"
               style="fill:none;stroke:#000000;stroke-width:0.73893344;stroke-linecap:round;stroke-linejoin:round;stroke-miterlimit:10;stroke-opacity:1;stroke-dasharray:none"
               d="m 272.88609,558.28094 14.90183,0" />
            <path
               id="path2531"
               style="fill:#000000;fill-opacity:1;fill-rule:evenodd;stroke:none"
               d="m 287.54161,562.34508 8.12826,-3.94098 -8.12826,-4.06413" />
          </g>
        </g>
      </g>
    </g>
  </g>
</svg>
